<mxfile host="app.diagrams.net" modified="2022-04-19T08:49:39.888Z" agent="5.0 (Windows NT 10.0; Win64; x64) AppleWebKit/537.36 (KHTML, like Gecko) Chrome/96.0.4664.45 Safari/537.36" etag="hRjSlduiLVapDHcRCFLA" version="17.4.5" type="github">
  <diagram id="rR8CcJQi8yALQyCtRHCH" name="Page-1">
    <mxGraphModel dx="1422" dy="762" grid="1" gridSize="10" guides="1" tooltips="1" connect="1" arrows="1" fold="1" page="1" pageScale="1" pageWidth="827" pageHeight="1169" math="0" shadow="0">
      <root>
        <mxCell id="0" />
        <mxCell id="1" parent="0" />
        <mxCell id="WSKHrjnX9OZWL_ApC0PT-8" value="" style="edgeStyle=orthogonalEdgeStyle;rounded=0;orthogonalLoop=1;jettySize=auto;html=1;" parent="1" source="WSKHrjnX9OZWL_ApC0PT-1" target="WSKHrjnX9OZWL_ApC0PT-2" edge="1">
          <mxGeometry relative="1" as="geometry" />
        </mxCell>
        <mxCell id="WSKHrjnX9OZWL_ApC0PT-1" value="待处理图像" style="rounded=1;whiteSpace=wrap;html=1;" parent="1" vertex="1">
          <mxGeometry x="60" y="180" width="120" height="60" as="geometry" />
        </mxCell>
        <mxCell id="WSKHrjnX9OZWL_ApC0PT-11" value="" style="edgeStyle=orthogonalEdgeStyle;rounded=0;orthogonalLoop=1;jettySize=auto;html=1;strokeColor=#FF3333;dashed=1;" parent="1" source="WSKHrjnX9OZWL_ApC0PT-2" target="WSKHrjnX9OZWL_ApC0PT-4" edge="1">
          <mxGeometry relative="1" as="geometry" />
        </mxCell>
        <mxCell id="WSKHrjnX9OZWL_ApC0PT-20" style="edgeStyle=orthogonalEdgeStyle;rounded=0;orthogonalLoop=1;jettySize=auto;html=1;entryX=0.5;entryY=0;entryDx=0;entryDy=0;" parent="1" source="WSKHrjnX9OZWL_ApC0PT-2" target="WSKHrjnX9OZWL_ApC0PT-18" edge="1">
          <mxGeometry relative="1" as="geometry">
            <Array as="points">
              <mxPoint x="270" y="130" />
              <mxPoint x="610" y="130" />
            </Array>
          </mxGeometry>
        </mxCell>
        <mxCell id="WSKHrjnX9OZWL_ApC0PT-2" value="检测模型" style="rounded=1;whiteSpace=wrap;html=1;" parent="1" vertex="1">
          <mxGeometry x="210" y="180" width="120" height="60" as="geometry" />
        </mxCell>
        <mxCell id="WSKHrjnX9OZWL_ApC0PT-4" value="分类模型" style="rounded=1;whiteSpace=wrap;html=1;" parent="1" vertex="1">
          <mxGeometry x="380" y="180" width="120" height="60" as="geometry" />
        </mxCell>
        <mxCell id="WSKHrjnX9OZWL_ApC0PT-18" value="瑕疵的类别、坐标" style="rounded=1;whiteSpace=wrap;html=1;" parent="1" vertex="1">
          <mxGeometry x="550" y="180" width="120" height="60" as="geometry" />
        </mxCell>
        <mxCell id="WSKHrjnX9OZWL_ApC0PT-21" value="" style="rounded=0;whiteSpace=wrap;html=1;dashed=1;strokeColor=#FF3333;fillColor=none;" parent="1" vertex="1">
          <mxGeometry x="350" y="162.5" width="180" height="95" as="geometry" />
        </mxCell>
        <mxCell id="WSKHrjnX9OZWL_ApC0PT-23" value="提升类别精度" style="text;html=1;strokeColor=none;fillColor=none;align=center;verticalAlign=middle;whiteSpace=wrap;rounded=0;dashed=1;" parent="1" vertex="1">
          <mxGeometry x="395" y="132.5" width="90" height="30" as="geometry" />
        </mxCell>
        <mxCell id="WSKHrjnX9OZWL_ApC0PT-24" value="" style="edgeStyle=orthogonalEdgeStyle;rounded=0;orthogonalLoop=1;jettySize=auto;html=1;strokeColor=#FF3333;dashed=1;exitX=1;exitY=0.5;exitDx=0;exitDy=0;entryX=0;entryY=0.5;entryDx=0;entryDy=0;" parent="1" source="WSKHrjnX9OZWL_ApC0PT-4" target="WSKHrjnX9OZWL_ApC0PT-18" edge="1">
          <mxGeometry relative="1" as="geometry">
            <mxPoint x="510" y="250" as="sourcePoint" />
            <mxPoint x="560" y="250" as="targetPoint" />
            <Array as="points">
              <mxPoint x="530" y="210" />
              <mxPoint x="530" y="210" />
            </Array>
          </mxGeometry>
        </mxCell>
        <mxCell id="WSKHrjnX9OZWL_ApC0PT-26" value="&lt;font style=&quot;font-size: 20px&quot;&gt;屏幕瑕疵检测流程&lt;/font&gt;" style="text;html=1;strokeColor=none;fillColor=none;align=center;verticalAlign=middle;whiteSpace=wrap;rounded=0;dashed=1;" parent="1" vertex="1">
          <mxGeometry x="50" y="90" width="200" height="30" as="geometry" />
        </mxCell>
      </root>
    </mxGraphModel>
  </diagram>
</mxfile>
